<svg id="Layer_1" data-name="Layer 1" xmlns="http://www.w3.org/2000/svg" viewBox="0 0 68.57 46.89"><title>median</title><path d="M.25,10.49V9.75L2.82,6.84A4.38,4.38,0,0,0,4.2,4.05,1.51,1.51,0,0,0,2.51,2.41,3.16,3.16,0,0,0,.66,3L.34,2a4,4,0,0,1,2.3-.64A2.46,2.46,0,0,1,5.42,3.95c0,1.26-.72,2.3-1.93,3.63L1.74,9.51H5.44v1Z" fill="#010101"/><path d="M7,10.49l3.25-8H6.16v-1h5.47v.73L8.27,10.49Z" fill="#010101"/><path d="M15.62,10.67c-1.79,0-3.44-1.34-3.43-4.62s1.64-4.71,3.43-4.71,3.44,1.45,3.43,4.71S17.42,10.67,15.62,10.67Zm0-1c1.21,0,2.11-1.13,2.11-3.62s-.9-3.69-2.11-3.69S13.52,3.55,13.51,6,14.42,9.67,15.62,9.67Z" fill="#010101"/><path d="M25.85,10.61a3.16,3.16,0,0,1-3.38-3.43,3.08,3.08,0,0,1,3-3.36c1.64,0,2.71,1.09,2.71,3.12v.49H23.71A2.07,2.07,0,0,0,26,9.63a4.14,4.14,0,0,0,1.77-.36l.22.9A4.75,4.75,0,0,1,25.85,10.61Zm-2.1-4.07H27c-.06-1.28-.67-1.81-1.57-1.81S23.91,5.4,23.75,6.55Z" fill="#010101"/><path d="M29.39,1.08h1.24v9.42H29.39Z" fill="#010101"/><path d="M35.24,10.61a3.16,3.16,0,0,1-3.38-3.43,3.08,3.08,0,0,1,3-3.36c1.64,0,2.71,1.09,2.71,3.12v.49H33.11a2.07,2.07,0,0,0,2.27,2.19,4.14,4.14,0,0,0,1.78-.36l.22.9A4.74,4.74,0,0,1,35.24,10.61Zm-2.1-4.07h3.24c-.06-1.28-.67-1.81-1.57-1.81S33.31,5.4,33.14,6.55Z" fill="#010101"/><path d="M43.54,10.21a4.24,4.24,0,0,1-2,.41,3.1,3.1,0,0,1-3.3-3.32,3.23,3.23,0,0,1,3.37-3.41,4.28,4.28,0,0,1,1.89.38l-.31,1a3.23,3.23,0,0,0-1.52-.36,2.16,2.16,0,0,0-2.18,2.39,2.07,2.07,0,0,0,2.15,2.33,3.61,3.61,0,0,0,1.57-.35Z" fill="#010101"/><path d="M44.9,8.48V5h-.83V4h.83v-2h1.24V4h1.55V5H46.14V8.41c0,.95.31,1.2.92,1.2a2.45,2.45,0,0,0,.62-.1v.95a3.23,3.23,0,0,1-.84.11C45.62,10.57,44.9,9.94,44.9,8.48Z" fill="#010101"/><path d="M51.58,10.67a3.19,3.19,0,0,1-3.23-3.38,3.23,3.23,0,1,1,6.45,0A3.18,3.18,0,0,1,51.58,10.67Zm0-1c1,0,2-.82,2-2.4s-.92-2.48-2-2.48-2,.9-2,2.48S50.55,9.69,51.58,9.69Z" fill="#010101"/><path d="M56,4H57.2V5.31a2.78,2.78,0,0,1,2.23-1.38v1.2a2.58,2.58,0,0,0-2.23,1.1v4.26H56Z" fill="#010101"/><path d="M63.71,9.85a2.15,2.15,0,0,1-1.7.79,2,2,0,0,1-2.13-2.12,2.09,2.09,0,0,1,2.31-2.1,2.27,2.27,0,0,1,1.52.5V6.21c0-1.06-.61-1.4-1.56-1.4a3.63,3.63,0,0,0-1.59.37l-.26-.89a4.45,4.45,0,0,1,2.06-.47c1.75,0,2.58.8,2.58,2.28v4.39H63.71Zm0-.72V7.7a2,2,0,0,0-1.28-.46c-.78,0-1.38.36-1.38,1.22a1.21,1.21,0,0,0,1.29,1.32A1.63,1.63,0,0,0,63.71,9.13Z" fill="#010101"/><path d="M66.47,1.08H67.7v9.42H66.47Z" fill="#010101"/><path d="M2.32,18.43H3.59l1.83,4.76,1.85-4.76H8.4L5.81,25h-.9Z" fill="#010101"/><path d="M11.88,25.07a3.19,3.19,0,0,1-3.23-3.38,3.23,3.23,0,1,1,6.45,0A3.18,3.18,0,0,1,11.88,25.07Zm0-1c1,0,2-.81,2-2.4s-.92-2.48-2-2.48-2,.9-2,2.48S10.85,24.09,11.88,24.09Z" fill="#010101"/><path d="M16.49,22.88v-3.5h-.83v-.95h.83v-2h1.24v2h1.55v.95H17.72v3.43c0,.95.31,1.2.92,1.2a2.39,2.39,0,0,0,.62-.1v.95a3.2,3.2,0,0,1-.84.11C17.21,25,16.49,24.34,16.49,22.88Z" fill="#010101"/><path d="M23.33,25a3.16,3.16,0,0,1-3.38-3.43,3.08,3.08,0,0,1,3-3.36c1.64,0,2.71,1.09,2.71,3.12v.49H21.19A2.07,2.07,0,0,0,23.46,24a4.14,4.14,0,0,0,1.78-.36l.22.9A4.75,4.75,0,0,1,23.33,25Zm-2.1-4.07h3.24c-.06-1.28-.67-1.81-1.57-1.81S21.39,19.8,21.23,20.95Z" fill="#010101"/><path d="M28.68,19.26c-.72,0-1.15.2-1.15.82,0,.89,1.31.85,2.3,1.34a1.58,1.58,0,0,1,.95,1.6c0,1.23-.92,2-2.46,2a4.29,4.29,0,0,1-2.13-.44l.29-.95a3.85,3.85,0,0,0,1.76.42c1,0,1.34-.41,1.34-1,0-.95-1.4-.88-2.35-1.45a1.63,1.63,0,0,1-.84-1.49c0-1.2.9-1.86,2.24-1.86a5.17,5.17,0,0,1,2,.35l-.26,1A4.07,4.07,0,0,0,28.68,19.26Z" fill="#010101"/><path d="M34.7,22.88v-3.5h-.83v-.95h.83v-2h1.24v2h1.55v.95H35.94v3.43c0,.95.31,1.2.92,1.2a2.39,2.39,0,0,0,.62-.1v.95a3.2,3.2,0,0,1-.84.11C35.42,25,34.7,24.34,34.7,22.88Z" fill="#010101"/><path d="M41.39,25.07a3.19,3.19,0,0,1-3.23-3.38,3.23,3.23,0,1,1,6.45,0A3.18,3.18,0,0,1,41.39,25.07Zm0-1c1,0,2-.81,2-2.4s-.92-2.48-2-2.48-2,.9-2,2.48S40.35,24.09,41.39,24.09Z" fill="#010101"/><path d="M47.71,18.43h1.21l1.22,4.45,1.61-4.55h.68L54,22.84l1.26-4.41h1.07L54.39,25h-.76L52,20.28,50.37,25h-.72Z" fill="#010101"/><path d="M58,15.85a.69.69,0,0,1,0,1.38.69.69,0,1,1,0-1.38Zm-.62,2.58h1.24v6.46H57.35Z" fill="#010101"/><path d="M60.2,24.89V18.43h1.23v.92a2.54,2.54,0,0,1,2.09-1.13c1.4,0,2.11.82,2.11,2.29v4.38H64.4V20.65c0-1-.46-1.44-1.31-1.44a2,2,0,0,0-1.66,1v4.64Z" fill="#010101"/><line x1="34.04" y1="31.89" x2="34.04" y2="41.89" fill="none" stroke="#010101" stroke-miterlimit="10"/><polygon points="34.14 46.89 31.14 39.53 34.14 41.27 37.15 39.53 34.14 46.89" fill="#010101"/></svg>