<svg id="Layer_1" data-name="Layer 1" xmlns="http://www.w3.org/2000/svg" viewBox="0 0 117.01 48.8"><title>median</title><path d="M2.32,10.49V9.75L4.88,6.84A4.38,4.38,0,0,0,6.26,4.05,1.51,1.51,0,0,0,4.57,2.41,3.15,3.15,0,0,0,2.72,3L2.4,2a4,4,0,0,1,2.3-.64A2.46,2.46,0,0,1,7.49,3.95c0,1.26-.72,2.3-1.93,3.63L3.8,9.51H7.51v1Z" fill="#010101"/><path d="M9,10.49l3.25-8H8.22v-1h5.47v.73l-3.36,8.25Z" fill="#010101"/><path d="M17.69,10.67c-1.79,0-3.44-1.34-3.43-4.62s1.64-4.71,3.43-4.71,3.44,1.45,3.43,4.71S19.48,10.67,17.69,10.67Zm0-1C18.9,9.67,19.8,8.54,19.8,6s-.9-3.69-2.11-3.69S15.59,3.55,15.58,6,16.49,9.67,17.69,9.67Z" fill="#010101"/><path d="M24.26,4h1.27l1.83,4.76L29.22,4h1.13l-2.59,6.54h-.9Z" fill="#010101"/><path d="M33.83,10.67A3.19,3.19,0,0,1,30.6,7.29a3.23,3.23,0,1,1,6.45,0A3.18,3.18,0,0,1,33.83,10.67Zm0-1c1,0,2-.82,2-2.4s-.92-2.48-2-2.48-2,.9-2,2.48S32.8,9.69,33.83,9.69Z" fill="#010101"/><path d="M38.44,8.48V5h-.83V4h.83v-2h1.24V4h1.55V5H39.67V8.41c0,.95.31,1.2.92,1.2a2.44,2.44,0,0,0,.62-.1v.95a3.22,3.22,0,0,1-.84.11C39.16,10.57,38.44,9.94,38.44,8.48Z" fill="#010101"/><path d="M45.12,10.67a3.19,3.19,0,0,1-3.23-3.38,3.23,3.23,0,1,1,6.45,0A3.18,3.18,0,0,1,45.12,10.67Zm0-1c1,0,2-.82,2-2.4s-.92-2.48-2-2.48-2,.9-2,2.48S44.09,9.69,45.12,9.69Z" fill="#010101"/><path d="M51.39,4.86c-.72,0-1.15.2-1.15.82,0,.89,1.31.85,2.3,1.34a1.58,1.58,0,0,1,.95,1.6c0,1.24-.92,2-2.46,2a4.29,4.29,0,0,1-2.14-.44l.29-.95A3.85,3.85,0,0,0,51,9.65c1,0,1.34-.41,1.34-1,0-.95-1.4-.88-2.35-1.45a1.63,1.63,0,0,1-.84-1.49c0-1.2.9-1.86,2.24-1.86a5.16,5.16,0,0,1,2,.35l-.26,1A4.07,4.07,0,0,0,51.39,4.86Z" fill="#010101"/><path d="M60.17,10.61a3.16,3.16,0,0,1-3.38-3.43,3.08,3.08,0,0,1,3-3.36c1.64,0,2.71,1.09,2.71,3.12v.49H58A2.07,2.07,0,0,0,60.3,9.63a4.14,4.14,0,0,0,1.77-.36l.22.9A4.74,4.74,0,0,1,60.17,10.61Zm-2.1-4.07h3.24c-.06-1.28-.67-1.81-1.57-1.81S58.23,5.4,58.07,6.55Z" fill="#010101"/><path d="M63.71,1.08h1.24v9.42H63.71Z" fill="#010101"/><path d="M69.56,10.61a3.16,3.16,0,0,1-3.38-3.43,3.08,3.08,0,0,1,3-3.36c1.64,0,2.71,1.09,2.71,3.12v.49H67.43a2.07,2.07,0,0,0,2.27,2.19,4.14,4.14,0,0,0,1.77-.36l.22.9A4.75,4.75,0,0,1,69.56,10.61Zm-2.1-4.07H70.7c-.06-1.28-.67-1.81-1.57-1.81S67.63,5.4,67.46,6.55Z" fill="#010101"/><path d="M77.86,10.21a4.24,4.24,0,0,1-2,.41,3.1,3.1,0,0,1-3.3-3.32A3.23,3.23,0,0,1,76,3.89a4.28,4.28,0,0,1,1.89.38l-.31,1A3.23,3.23,0,0,0,76,4.89a2.16,2.16,0,0,0-2.18,2.39A2.07,2.07,0,0,0,76,9.61a3.61,3.61,0,0,0,1.57-.35Z" fill="#010101"/><path d="M79.22,8.48V5h-.83V4h.83v-2h1.24V4H82V5H80.46V8.41c0,.95.31,1.2.92,1.2a2.43,2.43,0,0,0,.62-.1v.95a3.22,3.22,0,0,1-.84.11C79.94,10.57,79.22,9.94,79.22,8.48Z" fill="#010101"/><path d="M85.91,10.67a3.19,3.19,0,0,1-3.23-3.38,3.23,3.23,0,1,1,6.45,0A3.18,3.18,0,0,1,85.91,10.67Zm0-1c1,0,2-.82,2-2.4s-.92-2.48-2-2.48-2,.9-2,2.48S84.87,9.69,85.91,9.69Z" fill="#010101"/><path d="M90.29,4h1.23V5.31a2.78,2.78,0,0,1,2.23-1.38v1.2a2.58,2.58,0,0,0-2.23,1.1v4.26H90.29Z" fill="#010101"/><path d="M98,9.85a2.14,2.14,0,0,1-1.7.79,2,2,0,0,1-2.13-2.12,2.09,2.09,0,0,1,2.31-2.1,2.27,2.27,0,0,1,1.52.5V6.21c0-1.06-.61-1.4-1.56-1.4a3.63,3.63,0,0,0-1.59.37l-.26-.89a4.45,4.45,0,0,1,2.06-.47c1.75,0,2.58.8,2.58,2.28v4.39H98Zm0-.72V7.7a2,2,0,0,0-1.28-.46c-.78,0-1.38.36-1.38,1.22a1.21,1.21,0,0,0,1.29,1.32A1.63,1.63,0,0,0,98,9.13Z" fill="#010101"/><path d="M100.79,1.08H102v9.42h-1.24Z" fill="#010101"/><path d="M106.64,10.61a3.16,3.16,0,0,1-3.38-3.43,3.08,3.08,0,0,1,3-3.36c1.64,0,2.71,1.09,2.71,3.12v.49h-4.44a2.07,2.07,0,0,0,2.27,2.19,4.14,4.14,0,0,0,1.77-.36l.22.9A4.75,4.75,0,0,1,106.64,10.61Zm-2.1-4.07h3.24c-.06-1.28-.67-1.81-1.57-1.81S104.71,5.4,104.54,6.55Z" fill="#010101"/><path d="M112,4.86c-.72,0-1.15.2-1.15.82,0,.89,1.31.85,2.3,1.34a1.58,1.58,0,0,1,.95,1.6c0,1.24-.92,2-2.46,2a4.3,4.3,0,0,1-2.14-.44l.29-.95a3.85,3.85,0,0,0,1.76.42c1,0,1.34-.41,1.34-1,0-.95-1.4-.88-2.35-1.45a1.63,1.63,0,0,1-.84-1.49c0-1.2.9-1.86,2.24-1.86a5.16,5.16,0,0,1,2,.35l-.26,1A4.07,4.07,0,0,0,112,4.86Z" fill="#010101"/><path d="M33.45,27.36c-1.75,0-3-.61-3-1.73a1.53,1.53,0,0,1,1.14-1.37,1.14,1.14,0,0,1-.47-.92,1.28,1.28,0,0,1,.79-1.2A1.94,1.94,0,0,1,31,20.42a2.18,2.18,0,0,1,2.33-2.19,2.35,2.35,0,0,1,1.61.59,2.17,2.17,0,0,1,1.58-.54v1a2.93,2.93,0,0,0-1.13.16,1.73,1.73,0,0,1,.26,1,2.11,2.11,0,0,1-2.33,2.08,3.42,3.42,0,0,1-.86-.12.72.72,0,0,0-.31.6c0,.32.23.46.68.46h1.27c1.52,0,2.35.65,2.35,1.89S35.31,27.36,33.45,27.36Zm1.86-1.94c0-.55-.35-.85-1.27-.85h-1.3a2.12,2.12,0,0,1-.49,0,1,1,0,0,0-.64.95c0,.64.62,1,1.85,1S35.31,26.11,35.31,25.42Zm-2-3.71a1.18,1.18,0,0,0,1.22-1.3,1.23,1.23,0,1,0-2.45,0A1.17,1.17,0,0,0,33.36,21.72Z" fill="#010101"/><path d="M40.73,24.25A2.15,2.15,0,0,1,39,25a2,2,0,0,1-2.13-2.12,2.09,2.09,0,0,1,2.31-2.1,2.27,2.27,0,0,1,1.52.5v-.71c0-1.06-.61-1.4-1.56-1.4a3.64,3.64,0,0,0-1.6.37l-.26-.89a4.45,4.45,0,0,1,2.06-.47c1.75,0,2.58.8,2.58,2.28v4.39H40.73Zm0-.72V22.1a2,2,0,0,0-1.28-.46c-.78,0-1.38.36-1.38,1.22a1.21,1.21,0,0,0,1.29,1.32A1.63,1.63,0,0,0,40.73,23.53Z" fill="#010101"/><path d="M43.4,24.89V18.43h1.23v.92a2.54,2.54,0,0,1,2.09-1.13c1.4,0,2.11.82,2.11,2.29v4.38H47.6V20.65c0-1-.46-1.44-1.31-1.44a2,2,0,0,0-1.66,1v4.64Z" fill="#010101"/><path d="M53.71,24.25A2.15,2.15,0,0,1,52,25a2,2,0,0,1-2.13-2.12,2.09,2.09,0,0,1,2.31-2.1,2.27,2.27,0,0,1,1.52.5v-.71c0-1.06-.61-1.4-1.56-1.4a3.63,3.63,0,0,0-1.59.37l-.26-.89a4.45,4.45,0,0,1,2.06-.47c1.75,0,2.58.8,2.58,2.28v4.39H53.71Zm0-.72V22.1a2,2,0,0,0-1.28-.46c-.78,0-1.38.36-1.38,1.22a1.21,1.21,0,0,0,1.3,1.32A1.63,1.63,0,0,0,53.71,23.53Z" fill="#010101"/><path d="M60.9,24a2.71,2.71,0,0,1-2.06,1.06C57.24,25.06,56,24,56,21.7s1.37-3.48,2.93-3.48a2.52,2.52,0,0,1,2,.94V15.48h1.24v9.41H60.9Zm0-.85V20a2.19,2.19,0,0,0-1.7-.78c-1,0-2,.82-2,2.49s.91,2.36,1.91,2.36A2.25,2.25,0,0,0,60.9,23.15Z" fill="#010101"/><path d="M66.51,25.07a3.19,3.19,0,0,1-3.23-3.38,3.23,3.23,0,1,1,6.45,0A3.18,3.18,0,0,1,66.51,25.07Zm0-1c1,0,2-.82,2-2.4s-.92-2.48-2-2.48-2,.9-2,2.48S65.48,24.09,66.51,24.09Z" fill="#010101"/><path d="M70.89,18.43h1.24v1.28a2.78,2.78,0,0,1,2.23-1.38v1.2a2.58,2.58,0,0,0-2.23,1.1v4.26H70.89Z" fill="#010101"/><path d="M78.24,25a3.16,3.16,0,0,1-3.38-3.43,3.08,3.08,0,0,1,3-3.36c1.64,0,2.71,1.09,2.71,3.12v.49H76.1A2.07,2.07,0,0,0,78.37,24a4.14,4.14,0,0,0,1.77-.36l.22.9A4.75,4.75,0,0,1,78.24,25Zm-2.1-4.07h3.24c-.06-1.28-.67-1.81-1.57-1.81S76.31,19.8,76.14,20.95Z" fill="#010101"/><path d="M83.59,19.26c-.72,0-1.15.2-1.15.82,0,.89,1.31.85,2.3,1.34a1.58,1.58,0,0,1,.95,1.6c0,1.24-.92,2-2.46,2a4.29,4.29,0,0,1-2.14-.44l.29-.95a3.85,3.85,0,0,0,1.76.42c1,0,1.34-.41,1.34-1,0-.95-1.4-.88-2.35-1.45a1.63,1.63,0,0,1-.84-1.49c0-1.2.9-1.86,2.24-1.86a5.16,5.16,0,0,1,2,.35l-.26,1A4.06,4.06,0,0,0,83.59,19.26Z" fill="#010101"/><line x1="58.17" y1="32.49" x2="58.17" y2="42.49" fill="none" stroke="#010101" stroke-miterlimit="10"/><polygon points="58.27 47.49 55.26 40.13 58.27 41.88 61.27 40.13 58.27 47.49" fill="#010101"/></svg>